<svg width="28" height="28" viewBox="0 0 28 28" fill="none" xmlns="http://www.w3.org/2000/svg">
<mask id="mask0_3559_997" style="mask-type:alpha" maskUnits="userSpaceOnUse" x="0" y="0" width="28" height="28">
<rect width="28" height="28" fill="#D9D9D9"/>
</mask>
<g mask="url(#mask0_3559_997)">
<path d="M22.1667 17.4999C22.4001 17.2666 22.6771 17.1499 22.998 17.1499C23.3188 17.1499 23.5959 17.2666 23.8292 17.4999L25.6667 19.3666C25.9001 19.5999 26.0167 19.8721 26.0167 20.1832C26.0167 20.4943 25.9001 20.7666 25.6667 20.9999C25.4334 21.2332 25.1612 21.3499 24.8501 21.3499C24.539 21.3499 24.2667 21.2332 24.0334 20.9999L22.1667 19.1624C21.9334 18.9291 21.8167 18.652 21.8167 18.3312C21.8167 18.0103 21.9334 17.7332 22.1667 17.4999ZM23.3334 3.4999C23.5667 3.73324 23.6834 4.01032 23.6834 4.33115C23.6834 4.65199 23.5667 4.92907 23.3334 5.1624L21.4959 6.9999C21.2626 7.23324 20.9855 7.3499 20.6646 7.3499C20.3438 7.3499 20.0667 7.23324 19.8334 6.9999C19.6001 6.76657 19.4834 6.48949 19.4834 6.16865C19.4834 5.84782 19.6001 5.57074 19.8334 5.3374L21.7001 3.4999C21.9334 3.26657 22.2056 3.1499 22.5167 3.1499C22.8278 3.1499 23.1001 3.26657 23.3334 3.4999ZM4.66673 3.4999C4.90006 3.26657 5.17715 3.1499 5.49798 3.1499C5.81881 3.1499 6.0959 3.26657 6.32923 3.4999L8.16673 5.36657C8.40006 5.5999 8.51673 5.87212 8.51673 6.18324C8.51673 6.49435 8.40006 6.76657 8.16673 6.9999C7.9334 7.23324 7.65631 7.3499 7.33548 7.3499C7.01465 7.3499 6.73757 7.23324 6.50423 6.9999L4.66673 5.1624C4.4334 4.92907 4.31673 4.65199 4.31673 4.33115C4.31673 4.01032 4.4334 3.73324 4.66673 3.4999ZM5.8334 17.4999C6.06673 17.7332 6.1834 18.0103 6.1834 18.3312C6.1834 18.652 6.06673 18.9291 5.8334 19.1624L3.9959 20.9999C3.76257 21.2332 3.48548 21.3499 3.16465 21.3499C2.84382 21.3499 2.56673 21.2332 2.3334 20.9999C2.10007 20.7666 1.9834 20.4895 1.9834 20.1687C1.9834 19.8478 2.10007 19.5707 2.3334 19.3374L4.20006 17.4999C4.4334 17.2666 4.70562 17.1499 5.01673 17.1499C5.32784 17.1499 5.60006 17.2666 5.8334 17.4999ZM10.3251 19.6291L14.0001 17.4124L17.6751 19.6582L16.7126 15.4582L19.9501 12.6582L15.6917 12.2791L14.0001 8.3124L12.3084 12.2499L8.05007 12.6291L11.2876 15.4582L10.3251 19.6291ZM14.0001 20.1541L9.1584 23.0707C8.94451 23.2068 8.7209 23.2652 8.48757 23.2457C8.25423 23.2263 8.05007 23.1485 7.87507 23.0124C7.70007 22.8763 7.56395 22.7062 7.46673 22.502C7.36951 22.2978 7.35007 22.0693 7.4084 21.8166L8.69173 16.3041L4.40423 12.5999C4.20979 12.4249 4.08826 12.2256 4.03965 12.002C3.99104 11.7784 4.00562 11.5596 4.0834 11.3457C4.16118 11.1318 4.27784 10.9568 4.4334 10.8207C4.58895 10.6846 4.80284 10.5971 5.07507 10.5582L10.7334 10.0624L12.9209 4.87074C13.0181 4.6374 13.1688 4.4624 13.373 4.34574C13.5771 4.22907 13.7862 4.17074 14.0001 4.17074C14.214 4.17074 14.423 4.22907 14.6271 4.34574C14.8313 4.4624 14.982 4.6374 15.0792 4.87074L17.2667 10.0624L22.9251 10.5582C23.1973 10.5971 23.4112 10.6846 23.5667 10.8207C23.7223 10.9568 23.839 11.1318 23.9167 11.3457C23.9945 11.5596 24.0091 11.7784 23.9605 12.002C23.9119 12.2256 23.7903 12.4249 23.5959 12.5999L19.3084 16.3041L20.5917 21.8166C20.6501 22.0693 20.6306 22.2978 20.5334 22.502C20.4362 22.7062 20.3001 22.8763 20.1251 23.0124C19.9501 23.1485 19.7459 23.2263 19.5126 23.2457C19.2792 23.2652 19.0556 23.2068 18.8417 23.0707L14.0001 20.1541Z" fill="#009FFF"/>
</g>
</svg>
