<svg width="24" height="24" viewBox="0 0 24 24" fill="none" xmlns="http://www.w3.org/2000/svg">
<mask id="mask0_365_1213" style="mask-type:alpha" maskUnits="userSpaceOnUse" x="0" y="0" width="24" height="24">
<rect width="24" height="24" fill="#D9D9D9"/>
</mask>
<g mask="url(#mask0_365_1213)">
<path d="M10.85 13.75L10.95 14.55C10.9667 14.6833 11.0208 14.7917 11.1125 14.875C11.2042 14.9583 11.3167 15 11.45 15H12.55C12.6833 15 12.7958 14.9583 12.8875 14.875C12.9792 14.7917 13.0333 14.6833 13.05 14.55L13.15 13.75C13.2833 13.7 13.4042 13.6417 13.5125 13.575C13.6208 13.5083 13.7167 13.4333 13.8 13.35L14.55 13.675C14.6667 13.725 14.7833 13.7333 14.9 13.7C15.0167 13.6667 15.1083 13.5917 15.175 13.475L15.725 12.525C15.7917 12.4083 15.8125 12.2917 15.7875 12.175C15.7625 12.0583 15.7 11.9583 15.6 11.875L14.95 11.4C14.9833 11.2667 15 11.1333 15 11C15 10.8667 14.9833 10.7333 14.95 10.6L15.6 10.125C15.7 10.0417 15.7625 9.94167 15.7875 9.825C15.8125 9.70833 15.7917 9.59167 15.725 9.475L15.175 8.525C15.1083 8.40833 15.0167 8.33333 14.9 8.3C14.7833 8.26667 14.6667 8.275 14.55 8.325L13.8 8.65C13.7167 8.56667 13.6208 8.49167 13.5125 8.425C13.4042 8.35833 13.2833 8.3 13.15 8.25L13.05 7.45C13.0333 7.31667 12.9792 7.20833 12.8875 7.125C12.7958 7.04167 12.6833 7 12.55 7H11.45C11.3167 7 11.2042 7.04167 11.1125 7.125C11.0208 7.20833 10.9667 7.31667 10.95 7.45L10.85 8.25C10.7167 8.3 10.5958 8.35833 10.4875 8.425C10.3792 8.49167 10.2833 8.56667 10.2 8.65L9.45 8.325C9.33333 8.275 9.21667 8.26667 9.1 8.3C8.98333 8.33333 8.89167 8.40833 8.825 8.525L8.275 9.475C8.20833 9.59167 8.1875 9.70833 8.2125 9.825C8.2375 9.94167 8.3 10.0417 8.4 10.125L9.05 10.6C9.01667 10.7333 9 10.8667 9 11C9 11.1333 9.01667 11.2667 9.05 11.4L8.4 11.875C8.3 11.9583 8.2375 12.0583 8.2125 12.175C8.1875 12.2917 8.20833 12.4083 8.275 12.525L8.825 13.475C8.89167 13.5917 8.98333 13.6667 9.1 13.7C9.21667 13.7333 9.33333 13.725 9.45 13.675L10.2 13.35C10.2833 13.4333 10.3792 13.5083 10.4875 13.575C10.5958 13.6417 10.7167 13.7 10.85 13.75ZM12 12.5C11.5833 12.5 11.2292 12.3542 10.9375 12.0625C10.6458 11.7708 10.5 11.4167 10.5 11C10.5 10.5833 10.6458 10.2292 10.9375 9.9375C11.2292 9.64583 11.5833 9.5 12 9.5C12.4167 9.5 12.7708 9.64583 13.0625 9.9375C13.3542 10.2292 13.5 10.5833 13.5 11C13.5 11.4167 13.3542 11.7708 13.0625 12.0625C12.7708 12.3542 12.4167 12.5 12 12.5ZM6 17.7C5.05 16.8333 4.3125 15.8208 3.7875 14.6625C3.2625 13.5042 3 12.2833 3 11C3 8.5 3.875 6.375 5.625 4.625C7.375 2.875 9.5 2 12 2C14.0833 2 15.9292 2.6125 17.5375 3.8375C19.1458 5.0625 20.1917 6.65833 20.675 8.625L21.975 13.75C22.0583 14.0667 22 14.3542 21.8 14.6125C21.6 14.8708 21.3333 15 21 15H19V18C19 18.55 18.8042 19.0208 18.4125 19.4125C18.0208 19.8042 17.55 20 17 20H15V21C15 21.2833 14.9042 21.5208 14.7125 21.7125C14.5208 21.9042 14.2833 22 14 22C13.7167 22 13.4792 21.9042 13.2875 21.7125C13.0958 21.5208 13 21.2833 13 21V19C13 18.7167 13.0958 18.4792 13.2875 18.2875C13.4792 18.0958 13.7167 18 14 18H17V14C17 13.7167 17.0958 13.4792 17.2875 13.2875C17.4792 13.0958 17.7167 13 18 13H19.7L18.75 9.125C18.3667 7.60833 17.55 6.375 16.3 5.425C15.05 4.475 13.6167 4 12 4C10.0667 4 8.41667 4.675 7.05 6.025C5.68333 7.375 5 9.01667 5 10.95C5 11.95 5.20417 12.9 5.6125 13.8C6.02083 14.7 6.6 15.5 7.35 16.2L8 16.8V21C8 21.2833 7.90417 21.5208 7.7125 21.7125C7.52083 21.9042 7.28333 22 7 22C6.71667 22 6.47917 21.9042 6.2875 21.7125C6.09583 21.5208 6 21.2833 6 21V17.7Z" fill="#009FFF"/>
</g>
</svg>
