<svg width="28" height="28" viewBox="0 0 28 28" fill="none" xmlns="http://www.w3.org/2000/svg">
<mask id="mask0_3143_2903" style="mask-type:alpha" maskUnits="userSpaceOnUse" x="0" y="0" width="28" height="28">
<rect width="28" height="28" fill="#D9D9D9"/>
</mask>
<g mask="url(#mask0_3143_2903)">
<path d="M4.27657 24.4999C3.75157 24.4999 3.29618 24.3071 2.91041 23.9215C2.52482 23.5358 2.33203 23.0804 2.33203 22.5554V8.94446C2.33203 8.41946 2.52482 7.96407 2.91041 7.57829C3.29618 7.19271 3.75157 6.99992 4.27657 6.99992H9.33203V4.27779C9.33203 3.75279 9.52482 3.29741 9.91041 2.91163C10.2962 2.52604 10.7516 2.33325 11.2766 2.33325H16.7208C17.2458 2.33325 17.7012 2.52604 18.087 2.91163C18.4726 3.29741 18.6654 3.75279 18.6654 4.27779V6.99992H23.7208C24.2458 6.99992 24.7012 7.19271 25.087 7.57829C25.4726 7.96407 25.6654 8.41946 25.6654 8.94446V22.5554C25.6654 23.0804 25.4726 23.5358 25.087 23.9215C24.7012 24.3071 24.2458 24.4999 23.7208 24.4999H4.27657ZM11.2766 6.99992H16.7208V4.27779H11.2766V6.99992ZM23.7208 17.2861H16.9349V18.2618C16.9349 18.5381 16.8416 18.7686 16.6549 18.9533C16.4684 19.138 16.2373 19.2304 15.9616 19.2304H12.0693C11.7936 19.2304 11.5634 19.1372 11.3787 18.951C11.1939 18.7647 11.1016 18.5338 11.1016 18.2583V17.2861H4.27657V22.5554H23.7208V17.2861ZM13.0458 17.2861H14.9904V15.3416H13.0458V17.2861ZM4.27657 15.3416H11.1016V14.366C11.1016 14.0895 11.1948 13.8588 11.3813 13.6741C11.5678 13.4894 11.7989 13.397 12.0746 13.397H15.9672C16.2429 13.397 16.4731 13.4903 16.6578 13.6768C16.8425 13.863 16.9349 14.0939 16.9349 14.3695V15.3416H23.7208V8.94446H4.27657V15.3416Z" fill="#009FFF"/>
</g>
</svg>
